<?xml version="1.0" encoding="utf-8"?>
<!-- Generator: Adobe Illustrator 21.1.0, SVG Export Plug-In . SVG Version: 6.00 Build 0)  -->
<!DOCTYPE svg PUBLIC "-//W3C//DTD SVG 1.1//EN" "http://www.w3.org/Graphics/SVG/1.1/DTD/svg11.dtd">
<svg version="1.1" id="Laag_1" xmlns="http://www.w3.org/2000/svg" xmlns:xlink="http://www.w3.org/1999/xlink" x="0px" y="0px"
	 viewBox="0 0 841.9 339.8" style="enable-background:new 0 0 841.9 339.8;" xml:space="preserve">
<style type="text/css">
	.st0{fill:#FFFFFF;}
</style>
<path class="st0" d="M204.5,223.5H78.8l-29,62H30L137.9,54.3h7.1l108.8,231.2h-20.3L204.5,223.5z M195.9,205.3L141.6,89.1
	L87.4,205.3H195.9z"/>
<path class="st0" d="M170.6,54.7h8l113.1,113.7L404.8,54.7h8v231.2h-18.2V91.7L291.7,194.3L188.8,91.7v194.2h-18.2V54.7z"/>
<path class="st0" d="M684.6,170.3c0,66.3-53,115.6-116.5,115.6c-63.8,0-115.6-51.8-115.6-115.6S504.3,54.7,568.1,54.7
	c31.7,0,61.3,12.3,82.3,33.6l-12.9,12.9c-17.6-17.6-42.5-28-69-28c-53.6,0-96.8,43.5-96.8,97.1c0,53.6,43.1,97.7,96.8,97.7
	c49.6,0,92.2-36.4,97.4-87.2h-97.1v-18.2h115.6C684.6,165.1,684.6,167.5,684.6,170.3z"/>
<path class="st0" d="M695.2,285c-63.8,0-115.6-51.8-115.6-115.6c0-63.8,51.8-115.6,115.6-115.6c63.5,0,115.3,51.8,115.3,115.6
	C810.5,233.2,758.7,285,695.2,285z M695.5,72.6c-53.6,0-96.8,43.1-96.8,96.8s43.1,97.1,96.8,97.1c53,0,96.8-43.5,96.8-97.1
	S748.5,72.6,695.5,72.6z"/>
<path class="st0" d="M424,54.7h18.2v231.2H424V54.7z"/>
<rect x="573.6" y="162.6" class="st0" width="52" height="18.1"/>
<rect x="165.8" y="205.2" class="st0" width="24" height="18"/>
</svg>
